<?xml version="1.0" standalone="no"?>
<!DOCTYPE svg PUBLIC "-//W3C//DTD SVG 20010904//EN"
 "http://www.w3.org/TR/2001/REC-SVG-20010904/DTD/svg10.dtd">
<svg version="1.0" xmlns="http://www.w3.org/2000/svg"
 width="2667.000000pt" height="429.000000pt" viewBox="0 0 2667.000000 429.000000"
 preserveAspectRatio="xMidYMid meet">
<metadata>
Created by potrace 1.16, written by Peter Selinger 2001-2019
</metadata>
<g transform="translate(0.000000,429.000000) scale(0.100000,-0.100000)"
fill="#000000" stroke="none">
<path d="M2148 3882 l-306 -95 -328 -771 c-180 -424 -329 -774 -331 -778 -2
-5 117 -8 265 -8 l269 0 86 208 85 207 44 3 44 3 397 -802 c430 -867 426 -857
370 -897 -92 -65 -275 -138 -434 -174 -91 -20 -130 -23 -319 -23 -236 0 -305
10 -474 66 -49 16 -91 28 -93 26 -4 -5 -113 -307 -113 -314 0 -10 212 -104
295 -131 343 -113 666 -115 1010 -5 222 70 443 196 622 353 423 369 652 955
578 1477 -89 627 -508 1160 -1093 1389 -47 19 -86 33 -88 31 -1 -1 -16 -36
-32 -77 l-30 -75 81 -43 c377 -201 645 -573 723 -1002 27 -147 24 -431 -4
-578 -27 -134 -68 -255 -128 -374 l-44 -88 -43 0 -42 0 -458 915 c-374 749
-457 922 -457 955 0 28 39 136 130 362 72 177 129 325 128 328 -2 4 -141 -36
-310 -88z"/>
<path d="M1347 3537 c-65 -34 -159 -91 -210 -127 -103 -73 -298 -261 -373
-360 -146 -194 -280 -484 -319 -694 l-7 -36 58 0 59 0 17 118 c40 287 164 543
367 754 138 144 295 255 455 319 54 22 83 53 74 80 -2 5 -56 -20 -121 -54z"/>
<path d="M8115 2851 c-243 -38 -452 -184 -578 -403 -39 -68 -86 -215 -93 -294
-18 -201 117 -428 308 -519 78 -37 186 -65 256 -65 64 0 188 28 264 59 148 63
295 190 377 328 48 81 97 224 107 310 13 122 -47 293 -140 399 -116 132 -331
211 -501 185z m258 -215 c72 -35 130 -105 153 -183 13 -43 15 -85 12 -187 -4
-113 -8 -140 -31 -196 -54 -131 -165 -244 -285 -291 -48 -19 -77 -23 -187 -23
-122 0 -134 1 -192 28 -78 35 -133 94 -162 170 -17 46 -21 78 -21 174 0 64 5
137 11 162 27 117 128 259 227 318 92 54 125 62 277 59 131 -2 144 -4 198 -31z"/>
<path d="M14044 2846 c-97 -19 -136 -32 -225 -78 -93 -47 -194 -129 -255 -206
-56 -71 -128 -216 -151 -302 -78 -302 118 -609 432 -675 90 -19 138 -19 233 1
313 65 556 311 618 628 15 74 16 99 6 164 -15 95 -73 219 -137 290 -126 140
-338 212 -521 178z m278 -209 c69 -34 121 -91 148 -164 26 -70 28 -271 4 -354
-41 -138 -140 -261 -258 -319 -171 -85 -426 -57 -526 56 -61 69 -74 114 -78
259 -4 120 -2 137 22 209 56 166 168 282 321 332 27 9 85 13 175 11 125 -2
139 -4 192 -30z"/>
<path d="M18893 2850 c-319 -47 -589 -285 -674 -595 -93 -340 137 -641 519
-681 82 -9 208 11 319 51 164 59 144 29 234 345 44 151 79 281 79 288 0 10
-50 12 -232 10 l-232 -3 -22 -82 -22 -83 134 0 134 0 0 -47 c0 -56 -53 -242
-72 -255 -59 -38 -271 -60 -380 -38 -115 22 -199 83 -239 173 -31 70 -39 243
-15 338 55 219 224 373 440 401 165 21 309 -10 412 -88 l31 -24 66 58 c75 66
75 64 -22 129 -71 47 -186 88 -285 102 -85 12 -97 12 -173 1z"/>
<path d="M16880 2836 c-79 -21 -138 -48 -196 -92 -104 -79 -158 -172 -159
-274 0 -145 93 -236 355 -345 90 -37 158 -82 175 -116 21 -40 19 -137 -4 -179
-38 -72 -161 -103 -320 -82 -92 13 -181 49 -245 100 l-38 32 -27 -20 c-14 -11
-44 -35 -66 -54 l-40 -35 35 -36 c19 -20 76 -56 125 -81 304 -150 648 -72 776
177 28 54 33 75 34 134 0 58 -4 78 -27 116 -43 73 -110 126 -226 181 -239 111
-253 119 -273 151 -28 47 -26 143 4 187 44 66 66 75 197 78 140 4 201 -10 281
-63 l52 -36 59 58 c32 31 58 60 58 64 0 15 -134 92 -202 116 -90 32 -242 40
-328 19z"/>
<path d="M25870 2835 c-182 -50 -310 -169 -346 -322 -21 -88 11 -170 97 -247
49 -44 93 -68 284 -156 50 -22 105 -55 123 -72 31 -31 32 -34 32 -114 0 -73
-3 -86 -25 -112 -49 -59 -174 -83 -318 -63 -86 12 -161 43 -230 96 l-46 35
-66 -56 c-54 -46 -64 -59 -54 -70 31 -37 166 -115 240 -139 250 -79 476 -33
623 125 100 109 127 236 71 339 -52 95 -99 127 -383 257 -113 51 -132 75 -132
166 0 136 56 178 237 178 128 0 182 -14 260 -65 l56 -37 58 58 59 58 -21 22
c-26 28 -121 79 -196 105 -78 28 -247 35 -323 14z"/>
<path d="M4769 2243 c-228 -328 -422 -609 -433 -625 l-18 -29 88 3 88 3 100
148 100 147 323 0 c252 0 323 -3 323 -12 0 -7 9 -71 20 -143 11 -71 20 -133
20 -137 0 -5 46 -8 101 -8 l101 0 -4 28 c-2 15 -47 296 -98 625 l-94 597 -101
0 -102 0 -414 -597z m503 142 c15 -104 27 -220 27 -257 l1 -68 -215 0 -215 0
0 47 c0 44 9 62 142 261 l142 213 45 -3 46 -3 27 -190z"/>
<path d="M6196 2823 c-17 -58 -326 -1215 -326 -1223 0 -6 37 -10 88 -10 l89 0
87 328 c48 180 100 372 115 427 l28 100 48 0 47 0 197 -428 196 -427 84 2 84
3 163 610 c90 336 166 616 169 623 3 9 -18 12 -88 12 l-92 0 -104 -387 c-58
-214 -109 -403 -113 -421 -9 -32 -11 -33 -56 -30 l-46 3 -191 417 -190 417
-92 1 c-79 0 -92 -2 -97 -17z"/>
<path d="M9261 2803 c-6 -21 -80 -298 -166 -616 -85 -318 -155 -583 -155 -588
0 -5 41 -9 90 -9 50 0 90 3 90 6 0 5 215 810 226 847 4 13 16 17 47 17 l42 0
200 -432 200 -433 84 0 84 0 157 585 c87 322 162 602 168 623 l10 37 -91 0
-92 0 -104 -387 c-57 -214 -108 -403 -113 -421 -9 -32 -11 -33 -55 -30 l-47 3
-190 417 -191 418 -92 0 -92 0 -10 -37z"/>
<path d="M10600 2832 c0 -5 54 -166 120 -358 94 -275 120 -360 120 -402 0 -34
-21 -129 -55 -257 -30 -111 -55 -208 -55 -214 0 -17 176 -15 183 2 3 8 33 119
68 248 l63 234 328 375 327 375 -97 3 c-91 3 -98 1 -115 -20 -11 -13 -113
-137 -228 -275 l-209 -253 -44 0 -44 0 -77 275 -78 275 -103 0 c-57 0 -104 -4
-104 -8z"/>
<path d="M11831 2228 c-90 -337 -166 -619 -168 -625 -4 -10 18 -13 89 -13 l94
0 114 425 114 425 46 0 47 0 83 -222 c46 -123 88 -233 94 -245 10 -20 27 -4
239 228 l228 249 45 0 44 0 0 -42 c0 -24 -47 -216 -103 -428 l-104 -385 90 -3
c50 -1 93 1 97 5 4 4 78 274 165 598 87 325 161 602 166 618 l8 27 -117 0
-117 -1 -245 -279 -245 -280 -46 0 -45 0 -95 278 -94 277 -110 3 -110 2 -164
-612z"/>
<path d="M15210 2835 c0 -3 -46 -175 -101 -382 -66 -244 -104 -403 -107 -449
-16 -245 174 -426 448 -427 259 -1 447 128 557 383 28 64 243 832 243 868 0 9
-24 12 -89 12 -77 0 -90 -3 -95 -17 -3 -10 -53 -195 -111 -411 -66 -245 -117
-416 -136 -453 -37 -74 -88 -132 -148 -167 -42 -24 -57 -27 -165 -31 -133 -4
-179 6 -227 46 -54 46 -69 93 -69 219 0 107 2 119 85 430 47 175 90 334 95
352 l8 32 -94 0 c-52 0 -94 -2 -94 -5z"/>
<path d="M19938 2228 c-233 -337 -428 -619 -432 -625 -5 -10 13 -13 78 -13
l85 0 102 150 102 150 322 0 322 0 17 -127 c27 -193 12 -173 128 -173 l101 0
-6 28 c-3 15 -47 296 -98 624 l-94 598 -101 0 -101 0 -425 -612z m514 152 c15
-107 27 -223 28 -257 l0 -63 -215 0 -215 0 0 47 c0 44 9 62 142 261 l142 213
45 -3 45 -3 28 -195z"/>
<path d="M21366 2788 c-45 -157 -316 -1177 -316 -1186 0 -8 28 -12 89 -12 77
0 90 3 95 18 3 9 53 195 111 412 58 217 108 403 111 413 4 13 16 17 48 17 l43
0 93 -247 c51 -137 94 -249 95 -251 1 -1 105 110 231 248 l228 250 43 0 43 0
0 -48 c0 -30 -39 -194 -100 -422 -55 -206 -100 -378 -100 -382 0 -5 42 -8 93
-8 l93 0 163 608 c89 334 165 615 167 625 5 15 -5 17 -110 17 l-115 0 -247
-280 -247 -281 -45 3 -46 3 -94 278 -95 277 -108 0 -108 0 -15 -52z"/>
<path d="M23027 2833 c-3 -5 -77 -280 -166 -613 -89 -333 -164 -611 -166 -617
-3 -10 90 -13 444 -13 l448 0 22 83 c12 45 21 85 21 90 0 4 -155 7 -345 7
l-345 0 0 38 c1 20 18 100 39 177 l38 140 310 3 311 2 16 63 c9 34 19 72 22
85 l6 22 -296 0 -296 0 0 46 c0 25 16 104 35 175 19 71 35 132 35 134 0 3 159
5 353 5 l353 0 17 68 c10 37 20 77 23 90 l6 22 -440 0 c-243 0 -443 -3 -445
-7z"/>
<path d="M24289 2839 c0 -2 -76 -283 -167 -624 l-168 -620 89 -3 c49 -1 91 -1
94 1 2 3 29 100 60 216 l57 211 147 0 c107 0 150 -3 156 -12 4 -7 51 -103 104
-213 l97 -200 106 -3 106 -3 -90 181 c-76 152 -90 187 -90 228 l0 48 56 17
c91 28 164 69 224 124 65 60 103 124 126 213 20 78 13 134 -27 217 -47 98
-129 158 -265 194 -67 18 -119 22 -346 26 -148 3 -268 4 -269 2z m606 -209
c75 -37 95 -75 95 -174 -1 -132 -40 -191 -157 -237 -53 -21 -78 -23 -285 -27
l-228 -4 0 38 c0 32 93 405 107 427 3 5 98 7 212 5 196 -3 208 -4 256 -28z"/>
<path d="M235 2082 c5 -18 304 -644 310 -650 1 -2 29 40 61 92 l59 96 739 0
c699 0 738 1 732 18 -4 9 -53 117 -108 240 l-102 222 -849 0 c-820 0 -848 -1
-842 -18z"/>
<path d="M788 1308 c-42 -101 -78 -188 -80 -194 -5 -17 304 -576 313 -567 7 7
389 930 389 939 0 2 -123 4 -273 4 l-272 0 -77 -182z"/>
</g>
</svg>
